<?xml version="1.0" encoding="UTF-8"?>
<svg xmlns="http://www.w3.org/2000/svg" version="1.1" viewBox="0 0 311 89">
  <defs>
    <style>
      .cls-1 {
        opacity: .9;
      }

      .cls-2 {
        fill: #1a2e5c;
      }

      .cls-3 {
        fill: #171718;
      }

      .cls-4 {
        fill: #15191e;
      }
    </style>
  </defs>
  <!-- Generator: Adobe Illustrator 28.7.1, SVG Export Plug-In . SVG Version: 1.2.0 Build 142)  -->
  <g>
    <g id="Layer_1">
      <path class="cls-3" d="M94.6,5.9h9.9c12.1,0,18.6,7,18.6,19.5s-6.5,19.8-18.3,19.8h-10.1V5.9ZM104.1,41.2c9.3,0,13.8-5.8,13.8-15.7s-4.6-15.5-13.8-15.5h-4.5v31.2h4.5Z"/>
      <path class="cls-3" d="M138,5.9h22.7v4.2h-17.7v12.3h14.9v4.2h-14.9v14.3h18.3v4.2h-23.3V5.9Z"/>
      <path class="cls-3" d="M173.1,40.1l3-3.4c2.8,3,6.8,4.9,10.9,4.9s8.3-2.6,8.3-6.4-2.8-5.3-6.5-7l-5.7-2.5c-3.6-1.6-8-4.3-8-10.1s5.3-10.5,12.4-10.5,8.8,2,11.6,4.9l-2.6,3.2c-2.4-2.3-5.3-3.7-9-3.7s-7.3,2.3-7.3,5.8,3.4,5.3,6.5,6.5l5.6,2.4c4.6,2,8.1,4.7,8.1,10.5s-5.1,11.2-13.4,11.2-10.4-2.3-13.8-5.8Z"/>
      <path class="cls-3" d="M214.4,5.9h5v39.3h-5V5.9Z"/>
      <path class="cls-3" d="M234.3,25.6c0-12.7,7.6-20.4,18-20.4s9.1,2.5,11.3,4.9l-2.7,3.2c-2-2.1-4.5-3.8-8.5-3.8-7.9,0-13,6.1-13,15.9s4.7,16.1,13.1,16.1,5.6-.9,7.1-2.3v-10.3h-8.3v-4.1h12.9v16.5c-2.5,2.6-6.9,4.6-12.2,4.6-10.4,0-17.7-7.6-17.7-20.3Z"/>
      <path class="cls-3" d="M280,5.9h5.1l14.3,24.8,4.2,8.1h.3c-.3-4-.6-8.4-.6-12.4V5.9h4.7v39.3h-5.1l-14.3-24.8-4.2-8.1h-.2c.2,4,.6,8.2.6,12.3v20.7h-4.7V5.9Z"/>
      <path class="cls-2" d="M4.9,3h27.2v7.7H14.2v10.7h15v7.8h-15v12.4h18.6v7.8H4.9V3Z"/>
      <path class="cls-2" d="M44.2,43.8l20.4-33.1h-18.4V3h29.1v5.5l-20.3,33.1h20.5v7.8h-31.3v-5.6Z"/>
      <polygon class="cls-2" points="29.1 67.8 2 67.8 2 60.9 32.7 60.9 29.1 67.8"/>
      <g class="cls-1">
        <g>
          <path class="cls-4" d="M57.7,70.9c0,5.9-2.9,9.6-7,9.6s-7-3.7-7-9.6,2.9-9.6,7-9.6,7,3.7,7,9.6ZM46.7,70.9c0,4.3,1.7,6.8,4,6.8s4-2.6,4-6.8-1.7-6.8-4-6.8-4,2.6-4,6.8ZM65.1,59.3v27.3h-3.1v-27.3h3.1Z"/>
          <path class="cls-4" d="M79.8,67.2c0,4.5,2.8,9.2,7,11l-1.7,2.4c-3.1-1.4-5.6-4.3-6.8-7.9-1.2,3.8-3.6,7-6.8,8.6l-1.8-2.5c4.2-2,7-7,7-11.7v-2.6h-6v-2.6h15.2v2.6h-6v2.6ZM92.1,59.3v27.3h-3.1v-27.3h3.1Z"/>
          <path class="cls-4" d="M101.6,77.4c5,0,8.3-.2,11.9-.9l.3,2.6c-3.9.7-7.4.9-13.1.9h-2.3v-18.1h12.9v2.6h-9.8v13ZM119.2,59.3v27.3h-3.1v-27.3h3.1Z"/>
          <path class="cls-4" d="M133.4,67.2c0,4.2,2.7,9.1,6.8,11l-1.7,2.4c-3-1.4-5.3-4.5-6.6-7.9-1.2,3.8-3.6,7.1-6.7,8.6l-1.8-2.5c4.1-2,6.9-7.2,6.9-11.7v-2.6h-5.9v-2.6h14.7v2.6h-5.7v2.6ZM149.1,72.6h-4.2v13.9h-3.1v-27.3h3.1v10.7h4.2v2.6Z"/>
          <path class="cls-4" d="M158.6,74.8c-4.1,0-7.2-2.9-7.2-6.8s3.1-6.8,7.2-6.8,7.2,2.8,7.2,6.8-3.1,6.8-7.2,6.8ZM158.6,72.1c2.4,0,4.2-1.7,4.2-4.1s-1.8-4.1-4.2-4.1-4.2,1.6-4.2,4.1,1.8,4.1,4.2,4.1ZM174,83.5v2.5h-18.5v-8.9h3.1v6.4h15.4ZM173.2,79.1h-3.1v-19.8h3.1v19.8Z"/>
          <path class="cls-4" d="M192,60.8c0,7.2-3.7,12.2-12.3,14.8l-1.2-2.4c4.1-1.2,6.8-2.9,8.4-5.1l-8,.6-.5-2.5,9.7-.4c.3-.8.5-1.6.6-2.5h-8.9v-2.5h12.2ZM182.7,76.3h17.6v9.9h-17.6v-9.9ZM185.7,83.8h11.6v-5h-11.6v5ZM200.3,59.3v15.6h-3.1v-6.1h-5.4v-2.5h5.4v-7h3.1Z"/>
          <path class="cls-4" d="M229.4,77.7h-6v8.8h-3.1v-8.8h-6.3v8.8h-3.1v-8.8h-6.1v-2.6h24.6v2.6ZM211,63.2h-3.8v-2.5h20.1v2.5h-3.8v6.7h3.6v2.5h-19.7v-2.5h3.7v-6.7ZM220.3,63.2h-6.3v6.7h6.3v-6.7Z"/>
          <path class="cls-4" d="M236.2,77.7c4.3,0,7.4-.2,11-.8l.3,2.5c-3.9.7-7.3.8-12.2.8h-2.1v-18.6h12.6v2.6h-9.5v5.1h8.4v2.5h-8.4v5.9ZM254.4,59.2v27.3h-3.1v-14.8h-5.2v-2.6h5.2v-10h3.1Z"/>
          <path class="cls-4" d="M274.9,64.4h-16v-2.5h6.4v-2.8h3.1v2.8h6.5v2.5ZM266.9,75.5c-3.9,0-6.6-2-6.6-4.9s2.7-5,6.6-5,6.6,2,6.6,5-2.7,4.9-6.6,4.9ZM262.3,77.7h17.8v8.9h-3.1v-6.4h-14.7v-2.5ZM266.9,73.2c2.2,0,3.6-1,3.6-2.6s-1.5-2.6-3.6-2.6-3.6,1-3.6,2.6,1.4,2.6,3.6,2.6ZM283.9,69.2h-3.8v7.2h-3.1v-17.1h3.1v7.3h3.8v2.6Z"/>
          <path class="cls-4" d="M293.3,74.1c-2.6.1-5,.2-7.2.2l-.4-2.5c5,0,11.6,0,17.4-.8l.2,2.2c-2.3.4-4.7.7-7,.8v5.3h-3.1v-5.1ZM287.8,65.1c0-2.9,2.7-4.8,6.7-4.8s6.7,1.9,6.7,4.8-2.7,4.8-6.7,4.8-6.7-1.9-6.7-4.8ZM309,83.5v2.5h-19.6v-8.1h3.1v5.5h16.5ZM290.8,65.1c0,1.5,1.5,2.5,3.8,2.5s3.8-1,3.8-2.5-1.5-2.5-3.8-2.5-3.8,1-3.8,2.5ZM305.3,75.3v-16h3.1v20.7h-3.1v-2.5h-5.3v-2.2h5.3Z"/>
        </g>
      </g>
    </g>
  </g>
</svg>